<svg width="120" height="90" viewBox="0 0 120 90" fill="none" xmlns="http://www.w3.org/2000/svg">
<path d="M48.3022 68.3369L85.8256 12.5246C86.3935 11.6747 87.2115 11.0664 88.1411 10.8028C89.0706 10.5392 90.0546 10.6365 90.9263 11.0783C91.798 11.52 92.5039 12.279 92.9243 13.2267C93.3447 14.1743 93.4538 15.2524 93.2331 16.2783L93.0532 16.9237L69.841 81.4552C69.2096 83.1787 68.264 84.7423 67.0623 86.05C65.8606 87.3577 64.4282 88.382 62.853 89.0599C61.2777 89.7378 59.5929 90.0551 57.9019 89.9922C56.211 89.9293 54.5495 89.4877 53.0197 88.6943C51.4898 87.901 50.1237 86.7727 49.0054 85.3787C47.887 83.9848 47.0399 82.3545 46.5162 80.5881C45.9924 78.8217 45.8029 76.9564 45.9595 75.1067C46.116 73.2571 46.6152 71.462 47.4265 69.8318L47.8403 69.0679L48.2962 68.3435L85.8256 12.5246L48.2962 68.3435L48.3022 68.3369ZM99.645 15.6132C104.275 19.737 108.357 24.5515 111.773 29.917C114.916 34.8495 117.951 40.8226 119.69 45.709C119.906 46.3131 120.011 46.9579 119.999 47.6065C119.988 48.2551 119.86 48.8949 119.623 49.4893C119.386 50.0837 119.045 50.621 118.62 51.0707C118.194 51.5204 117.691 51.8736 117.141 52.1102C116.591 52.3467 116.004 52.4619 115.413 52.4493C114.822 52.4366 114.24 52.2964 113.698 52.0365C113.157 51.7766 112.667 51.4021 112.258 50.9346C111.848 50.467 111.527 49.9154 111.311 49.3113C110.644 47.485 109.887 45.6999 109.044 43.9639L96.748 51.7545C95.7609 52.3731 94.5972 52.5584 93.4908 52.2735C92.3843 51.9885 91.4171 51.2542 90.7835 50.2183C90.15 49.1824 89.897 47.9215 90.0755 46.6892C90.254 45.4569 90.8506 44.3444 91.7456 43.5753L92.2555 43.2L104.359 35.5212L102.98 33.4534C101.068 30.7122 98.9446 28.1564 96.634 25.8142L98.9132 19.4657C99.1412 18.8335 99.3151 18.1881 99.4351 17.5428L99.579 16.5747L99.639 15.6132H99.645ZM83.8703 5.33321C82.9629 5.9126 82.1417 6.64105 81.4351 7.49326L80.7513 8.41524L77.5124 13.2424C73.3035 11.6379 68.9331 10.5986 64.4967 10.1472V27.7437C64.4964 28.9951 64.0634 30.1997 63.2853 31.1142C62.5072 32.0286 61.442 32.5846 60.3049 32.6699C59.1678 32.7552 58.0436 32.3634 57.1594 31.5737C56.2753 30.7839 55.6971 29.6552 55.5417 28.4155L55.4998 27.7437V10.0287C45.599 10.8017 36.0771 14.5219 27.957 20.7894C23.0626 24.5563 18.792 29.4955 15.2472 35.3105L27.735 43.2263C28.7214 43.8525 29.4545 44.8664 29.7864 46.0631C30.1184 47.2598 30.0243 48.5503 29.5233 49.6738C29.0223 50.7974 28.1517 51.6703 27.0872 52.1164C26.0228 52.5625 24.8438 52.5485 23.7884 52.0772L23.2365 51.7809L10.7967 43.898C10.029 45.6498 9.3212 47.4542 8.66142 49.3047C8.21464 50.5025 7.35747 51.4599 6.27434 51.9709C5.1912 52.4818 3.96867 52.5055 2.86977 52.0369C1.77087 51.5683 0.883436 50.6447 0.3984 49.465C-0.086637 48.2853 -0.13051 46.9437 0.276222 45.7288C5.1166 32.0638 12.752 20.4206 22.7927 12.6958C31.5875 5.92674 41.7958 1.70373 52.4723 0.41789C63.1488 -0.867956 73.9481 0.824939 83.8703 5.3398V5.33321Z" fill="black"/>
</svg>
