<svg width="110" height="111" viewBox="0 0 110 111" fill="none" xmlns="http://www.w3.org/2000/svg">
<path d="M106.592 93.6053L80.5359 71.4472C77.8409 69.0203 74.9603 67.9134 72.6366 68.0165C79.5518 59.9077 83.0604 49.4371 82.4271 38.7988C81.7938 28.1604 77.0678 18.18 69.2393 10.9489C61.4109 3.71767 51.0876 -0.203097 40.4325 0.00811079C29.7774 0.219319 19.6176 4.54611 12.0819 12.0819C4.54611 19.6176 0.219319 29.7774 0.00811079 40.4325C-0.203097 51.0876 3.71767 61.4109 10.9489 69.2393C18.18 77.0678 28.1604 81.7938 38.7988 82.4271C49.4371 83.0604 59.9077 79.5518 68.0165 72.6366C67.9065 74.9603 69.0203 77.8409 71.4472 80.5359L93.6053 106.592C97.4003 110.807 103.595 111.164 107.376 107.383C111.157 103.602 110.8 97.4003 106.585 93.6122L106.592 93.6053ZM41.2522 68.7453C33.9587 68.7453 26.964 65.848 21.8067 60.6907C16.6495 55.5335 13.7522 48.5388 13.7522 41.2453C13.7522 33.9518 16.6495 26.9571 21.8067 21.7999C26.964 16.6426 33.9587 13.7453 41.2522 13.7453C48.5456 13.7453 55.5404 16.6426 60.6976 21.7999C65.8549 26.9571 68.7522 33.9518 68.7522 41.2453C68.7522 48.5388 65.8549 55.5335 60.6976 60.6907C55.5404 65.848 48.5456 68.7453 41.2522 68.7453Z" fill="black"/>
</svg>
