<svg width="57" height="90" viewBox="0 0 57 90" fill="none" xmlns="http://www.w3.org/2000/svg">
<path d="M14.1758 2.01926C14.3472 1.43614 14.7029 0.924238 15.1896 0.560216C15.6763 0.196195 16.2679 -0.000355403 16.8756 4.82437e-07H39.3743C39.8197 0.000338569 40.2586 0.106452 40.655 0.309606C41.0513 0.51276 41.3938 0.807145 41.6541 1.16853C41.9144 1.52991 42.0852 1.94795 42.1523 2.38824C42.2195 2.82852 42.1811 3.27847 42.0404 3.70103L32.0285 33.748H53.436C53.9626 33.7476 54.4788 33.8952 54.9257 34.1738C55.3727 34.4524 55.7324 34.8509 55.9639 35.3239C56.1954 35.797 56.2895 36.3255 56.2354 36.8494C56.1812 37.3733 55.9811 37.8714 55.6577 38.2871L16.2851 88.9091C15.8817 89.4302 15.3082 89.7931 14.6646 89.9345C14.021 90.0759 13.3482 89.9868 12.7635 89.6828C12.1789 89.3787 11.7196 88.8791 11.4658 88.271C11.212 87.6629 11.1797 86.9849 11.3747 86.3555L21.5047 53.4343H2.81398C2.37674 53.4346 1.94547 53.3329 1.55441 53.1373C1.16335 52.9417 0.823282 52.6577 0.561203 52.3077C0.299124 51.9577 0.122259 51.5514 0.0446536 51.1212C-0.0329519 50.6909 -0.00916024 50.2484 0.11414 49.8289L14.1758 2.01926ZM18.9793 5.62467L6.57126 47.8097H25.3126C25.7528 47.8096 26.1868 47.9128 26.5797 48.111C26.9727 48.3092 27.3136 48.5969 27.5752 48.9509C27.8367 49.3048 28.0115 49.7153 28.0855 50.1491C28.1595 50.583 28.1306 51.0281 28.0012 51.4488L21.2629 73.3456L47.6876 39.3727H28.125C27.6796 39.3723 27.2407 39.2662 26.8443 39.0631C26.448 38.8599 26.1055 38.5655 25.8452 38.2041C25.5849 37.8428 25.4141 37.4247 25.3469 36.9844C25.2798 36.5441 25.3181 36.0942 25.4589 35.6716L35.4708 5.62467H18.9793Z" fill="black"/>
</svg>
