<svg width="98" height="90" viewBox="0 0 98 90" fill="none" xmlns="http://www.w3.org/2000/svg">
<path d="M94.3818 51.548C94.8129 58.7914 91.412 65.7544 85.3288 70.007L89.017 76.97C90.1187 79.0729 90.2624 81.5496 89.3044 83.746C88.3944 85.9424 86.5263 87.6715 84.2271 88.4192L80.443 89.5875C78.8674 90.1053 77.1663 90.1364 75.5719 89.6764C73.9775 89.2164 72.5673 88.2878 71.5337 87.0172L61.379 75.3343C57.1159 74.6334 53.0923 72.8576 49.6915 70.1939C47.2965 70.8948 44.9015 71.2687 42.5065 71.2687C38.2913 71.2687 34.0762 70.007 30.5316 67.5769C27.9929 68.3246 25.4063 68.6517 22.7719 68.605C18.9878 68.6517 15.2516 67.904 11.755 66.5021C8.38923 65.037 5.51333 62.6785 3.45529 59.6956C1.39725 56.7128 0.239933 53.2256 0.115345 49.632C-0.267852 46.2673 0.306944 42.856 1.79183 39.7717C0.402743 36.2668 0.259044 32.4348 1.45653 28.8832C3.22882 24.4437 6.58179 20.752 10.7491 18.4154C13.5272 10.5178 21.3349 5.23709 29.9089 5.79787C37.5729 -1.21186 49.3083 -1.95956 57.8344 4.0688C59.8462 3.55476 61.9538 3.27437 64.0613 3.27437C70.5757 3.13417 76.7547 5.93806 80.8262 10.9383C90.5977 13.4151 97.5911 21.9202 97.9743 31.8273C98.2138 37.0145 96.7768 42.1082 93.8549 46.4543C94.1902 48.1366 94.3818 49.8189 94.3818 51.548ZM70.432 44.9589C73.1623 45.286 75.3178 47.2954 75.3178 49.9591C75.3178 51.1985 74.8131 52.3872 73.9148 53.2636C73.0165 54.1399 71.7982 54.6323 70.5278 54.6323H67.5101C65.9773 58.8381 63.2949 62.5299 59.7504 65.3338C60.9479 65.7544 62.1933 65.988 63.4386 66.3152C88.0112 65.988 85.1372 51.3611 85.1372 51.1274C85.01 47.9174 83.5811 44.8881 81.1647 42.706C78.7484 40.5238 75.5424 39.3674 72.2522 39.4913C70.9818 39.4913 69.7635 38.9989 68.8652 38.1225C67.9669 37.2462 67.4622 36.0575 67.4622 34.8181C67.4622 33.5787 67.9669 32.3901 68.8652 31.5137C69.7635 30.6373 70.9818 30.145 72.2522 30.145C78.1438 30.2852 83.796 32.4348 88.2028 36.2201C88.4423 34.8649 88.586 33.4629 88.586 32.061C88.2986 26.2663 85.6162 21.2193 74.8388 20.2379C68.8513 6.40538 53.7629 14.0693 53.7629 18.3686C53.6192 19.4435 54.7688 21.7333 54.9604 21.8735C56.2308 21.8735 57.4491 22.3659 58.3474 23.2422C59.2457 24.1186 59.7504 25.3073 59.7504 26.5467C59.7504 29.1169 57.5949 31.2198 54.9604 31.2198C52.4217 31.1263 50.0268 30.1917 48.1108 28.6028C45.8116 30.0515 43.1771 30.9394 40.4468 31.2198C37.7165 31.4535 35.4653 29.5842 35.3216 27.014C35.2333 26.4035 35.2739 25.7819 35.4408 25.1873C35.6077 24.5928 35.8974 24.0377 36.2922 23.5563C36.6869 23.0749 37.1783 22.6773 37.7363 22.388C38.2942 22.0986 38.9069 21.9235 39.5367 21.8735C40.3031 21.78 44.0393 21.2193 44.0393 18.2752C44.0393 15.1909 45.2368 12.2468 47.2965 9.91024C42.8897 8.74196 38.1476 10.2841 33.3577 15.9386C24.5442 14.5834 20.9517 15.7517 18.3172 24.8643C13.7667 27.0607 11.3718 28.6028 10.318 33.276C15.4911 32.2479 20.808 32.6685 25.7416 34.4443C28.1366 35.3322 29.4778 37.9491 28.5677 40.4726C27.6576 42.9027 24.8795 44.1177 22.3887 43.2298C18.892 41.7344 14.9642 41.6409 11.3718 42.9494C9.83897 44.2112 9.83897 46.8281 9.83897 48.8843C9.83897 52.3424 11.6113 55.5669 14.6289 57.4362C17.1676 58.6979 19.9937 59.3522 22.8198 59.3054C22.1013 58.0904 21.4786 56.8287 20.9517 55.5202C20.5746 54.3195 20.6895 53.023 21.2721 51.9033C21.8548 50.7836 22.8598 49.9279 24.0758 49.5163C25.2919 49.1047 26.6241 49.1692 27.7924 49.6963C28.9606 50.2234 29.8739 51.1719 30.34 52.3424C32.256 57.6698 37.1418 61.3149 42.8897 61.9224C49.452 61.5953 55.2957 57.81 58.1697 51.9686C59.2714 45.5196 64.5882 44.9589 70.432 44.9589ZM80.0119 79.8673L77.0421 73.7922L73.6413 74.5399L78.4312 80.3813L80.0119 79.8673V79.8673ZM57.7386 39.6315C57.7802 38.4377 57.3517 37.2736 56.5411 36.3785C55.7304 35.4833 54.5992 34.9249 53.3797 34.8181C49.9789 34.6312 46.6738 35.7528 44.1351 37.9491C41.4048 40.6596 39.9678 44.3981 40.1115 48.1833C40.1115 49.4227 40.6162 50.6114 41.5145 51.4878C42.4128 52.3641 43.6311 52.8565 44.9015 52.8565C47.6318 52.8565 49.6915 50.7536 49.6915 48.1833C49.6915 46.9216 50.0268 45.6598 50.7931 44.6317C51.3679 44.1644 52.0864 43.9308 52.8528 43.9308C55.4873 44.071 57.7386 42.155 57.7386 39.6315Z" fill="black"/>
</svg>
