<svg width="91" height="90" viewBox="0 0 91 90" fill="none" xmlns="http://www.w3.org/2000/svg">
<path d="M20 23.8V66.25H40.4L43.4 61.7C49.2 52.75 59.65 48.75 67.35 48.75C70 48.75 72.25 49.2 73.95 50C78.5 52.05 79.75 55.9 80 58.7C80.4 64.35 77.5 70.15 72.5 73.55C68 76.65 57.2 80 44.35 80C35.6 80 23.05 78.45 10.6 71.5C12.05 59.25 15 39.4 20 23.8V23.8ZM20 0C5 20.45 0 76.7 0 76.7C14.5 86.55 30.4 90 44.35 90C59.3 90 71.95 86.05 78.2 81.8C93.2 71.6 94.7 48.55 78.2 40.9C75 39.45 71.3 38.75 67.35 38.75C55.85 38.75 42.5 44.8 35 56.25H30V20.45H40L45 5L20 0Z" fill="black"/>
</svg>
