<svg width="93" height="90" viewBox="0 0 93 90" fill="none" xmlns="http://www.w3.org/2000/svg">
<path d="M72.834 0L90.034 0.014564L90.0437 17.1174L63.5034 43.6528L77.2323 57.3866L84.1016 50.5221L90.9661 57.3866L78.9557 69.4018L92.6846 83.1356L85.8202 90L72.0864 76.2662L60.0712 88.2815L53.2068 81.417L60.0712 74.5477L46.3375 60.8188L32.6086 74.5477L39.4779 81.417L32.6134 88.2815L20.5982 76.2662L6.86445 90L0 83.1356L13.7338 69.3969L1.71854 57.3866L8.58299 50.5221L15.4474 57.3817L29.1715 43.6528L2.66519 17.1466L2.65063 0L19.8651 0.014564L46.3375 26.4917L72.834 0ZM36.0359 50.5173L22.3119 64.2462L25.749 67.6784L39.473 53.9495L36.0408 50.5173H36.0359ZM80.3296 9.71412H76.8488L53.2068 33.3513L56.6341 36.7835L80.3296 13.0978V9.71412V9.71412ZM12.3647 9.71412V13.1124L66.9357 67.6833L70.3679 64.251L15.8358 9.71897L12.3647 9.71412V9.71412Z" fill="black"/>
</svg>
